<svg width="448" height="560" viewBox="0 0 448 560" fill="none" xmlns="http://www.w3.org/2000/svg">
<path d="M224 0C188.8 0 157.8 4.1 137 23C115 42.9 112 71.9 112 98C112 124.1 115 153.1 137 173C157.8 191.9 188.8 196 224 196C259.2 196 290.2 191.9 311 173C333 153.1 336 124.1 336 98C336 71.9 333 42.9 311 23C290.2 4.1 259.2 0 224 0ZM168 98C168 72.8 172 66.8 174.5 64.5C178.2 61.2 189.2 56 224 56C258.8 56 269.8 61.2 273.5 64.5C276 66.8 280 72.8 280 98C280 123.2 276 129.2 273.5 131.5C269.8 134.8 258.8 140 224 140C189.2 140 178.2 134.8 174.5 131.5C172 129.2 168 123.2 168 98ZM140 252C124.5 252 112 264.5 112 280C112 295.5 124.5 308 140 308H308C323.5 308 336 295.5 336 280C336 264.5 323.5 252 308 252H140ZM112 392C112 376.5 124.5 364 140 364H308C323.5 364 336 376.5 336 392C336 407.5 323.5 420 308 420H140C124.5 420 112 407.5 112 392ZM428.5 124.2C421.7 110.3 404.9 104.6 391 111.5C377.1 118.4 371.4 135.1 378.3 149C387.7 168 392 199 392 252V364C392 398.4 390.2 424.1 386.1 443.4C382 462.4 376 473.5 368.7 480.7C361.4 487.9 350.4 494 331.4 498.1C312.1 502.3 286.4 504 252 504H196C161.6 504 135.9 502.2 116.6 498.1C97.6 494 86.5 488 79.3 480.7C72.1 473.4 66 462.4 61.9 443.4C57.7 424.1 56 398.4 56 364V252C56 199 60.3 168 69.7 149C76.5 135.1 70.9 118.3 57 111.5C43.1 104.7 26.3 110.3 19.5 124.2C3.7 156.1 0 199.1 0 252V364C0 399.6 1.7 429.9 7.2 455.2C12.7 480.8 22.4 503 39.7 520.3C57 537.6 79.2 547.3 104.8 552.8C130.1 558.3 160.5 560 196 560H252C287.6 560 317.9 558.3 343.2 552.8C368.8 547.3 391 537.6 408.3 520.3C425.6 503 435.3 480.8 440.8 455.2C446.3 429.9 448 399.5 448 364V252C448 199.1 444.3 156.1 428.5 124.2Z" fill="white"/>
</svg>
